<svg width="44" height="44" viewBox="0 0 44 44" fill="none" xmlns="http://www.w3.org/2000/svg">
<ellipse cx="21.9163" cy="22" rx="20.9598" ry="21" fill="white" stroke="#0C9AD7"/>
<path fill-rule="evenodd" clip-rule="evenodd" d="M21.9179 13.6666C19.4775 13.6666 17.4992 15.6572 17.4992 18.1126C17.4992 20.568 19.4775 22.5586 21.9179 22.5586C24.3582 22.5586 26.3365 20.568 26.3365 18.1126C26.3365 15.6572 24.3582 13.6666 21.9179 13.6666ZM21.9179 14.873C23.696 14.873 25.1375 16.3234 25.1375 18.1126C25.1375 19.9018 23.696 21.3522 21.9179 21.3522C20.1397 21.3522 18.6982 19.9018 18.6982 18.1126C18.6982 16.3234 20.1397 14.873 21.9179 14.873ZM20.1095 24.3507C19.4626 24.3957 18.8088 24.4882 18.1638 24.6267C16.919 24.8836 15.9232 25.3969 15.4993 26.2499C15.3394 26.5834 15.259 26.9406 15.2604 27.3022C15.2599 27.6612 15.3396 28.0189 15.4938 28.346C15.9008 29.1892 16.7806 29.6663 17.9687 29.9308L18.1816 29.9753C18.809 30.1172 19.463 30.2127 20.1215 30.2575C20.1775 30.274 20.3112 30.2893 20.4571 30.2967L20.577 30.3012C20.6387 30.3027 20.7088 30.303 20.8131 30.303C21.7595 30.3552 22.7406 30.34 23.7171 30.2567C24.2375 30.221 24.7614 30.1529 25.281 30.053L25.6697 29.9721C26.9526 29.7185 27.9133 29.2363 28.3342 28.347C28.6462 27.6867 28.6462 26.9205 28.3343 26.2606C27.9145 25.3735 26.966 24.8953 25.6599 24.6257C25.1475 24.5161 24.6268 24.435 24.1023 24.3832L23.7189 24.3507C22.5181 24.2446 21.3103 24.2446 20.1095 24.3507ZM23.614 25.5525L23.6246 25.5533C24.2264 25.5957 24.8246 25.6804 25.4148 25.8066C26.385 26.0069 27.0434 26.3388 27.2516 26.7789C27.4085 27.1108 27.4085 27.4964 27.2515 27.8286C27.0569 28.2398 26.4656 28.5576 25.6109 28.7517L25.4238 28.7914C24.822 28.926 24.2258 29.0127 23.6256 29.0539C22.6944 29.1332 21.7687 29.1476 20.8453 29.0975L20.5179 29.0919C20.4271 29.0873 20.3505 29.0785 20.2795 29.0642C19.7174 29.0217 19.2117 28.9544 18.7206 28.8569L18.4274 28.7947C17.4543 28.6036 16.7901 28.2702 16.5747 27.8241C16.4994 27.6641 16.4591 27.4835 16.4594 27.3007C16.4587 27.119 16.4984 26.9425 16.5755 26.7815C16.7849 26.3603 17.4888 25.9975 18.4094 25.8075C19.0038 25.6799 19.6017 25.5953 20.2034 25.5533C21.3454 25.4525 22.483 25.4525 23.614 25.5525Z" fill="#0C9AD7"/>
</svg>
