<svg width="18" height="18" viewBox="0 0 18 18" fill="none" xmlns="http://www.w3.org/2000/svg">
<g id="Logout">
<path id="Logout_2" fill-rule="evenodd" clip-rule="evenodd" d="M8.44256 0.68457C10.4253 0.68457 12.0435 2.24618 12.1344 4.20643L12.1384 4.3804V5.1579C12.1384 5.50308 11.8586 5.7829 11.5134 5.7829C11.197 5.7829 10.9355 5.54778 10.8941 5.24271L10.8884 5.1579V4.3804C10.8884 3.07799 9.87004 2.01312 8.58626 1.93872L8.44256 1.93457H4.38006C3.07835 1.93457 2.0136 2.95301 1.93921 4.23672L1.93506 4.3804V13.6554C1.93506 14.9577 2.95331 16.0227 4.23644 16.0971L4.38006 16.1012H8.45089C9.74869 16.1012 10.8101 15.0866 10.8843 13.8077L10.8884 13.6646V12.8787C10.8884 12.5336 11.1682 12.2537 11.5134 12.2537C11.8298 12.2537 12.0913 12.4889 12.1327 12.7939L12.1384 12.8787V13.6646C12.1384 15.6406 10.5827 17.2538 8.62952 17.347L8.45089 17.3512H4.38006C2.39802 17.3512 0.779926 15.7895 0.689081 13.8294L0.685059 13.6554V4.3804C0.685059 2.39786 2.24652 0.779455 4.20615 0.688594L4.38006 0.68457H8.44256ZM17.6069 8.56639C17.7257 8.68016 17.7996 8.84035 17.7996 9.01782C17.7996 9.19708 17.7242 9.35871 17.6033 9.47267L15.1754 11.8906C14.9308 12.1342 14.5351 12.1333 14.2915 11.8888C14.0701 11.6664 14.0507 11.3192 14.2327 11.0749L14.2934 11.0049L15.6601 9.64282H7.14048C6.7953 9.64282 6.51548 9.363 6.51548 9.01782C6.51548 8.70141 6.7506 8.43991 7.05567 8.39853L7.14048 8.39282H15.6615L14.2934 7.03149C14.0711 6.8101 14.0501 6.46292 14.2311 6.21785L14.2915 6.14761C14.5129 5.92523 14.86 5.90429 15.1051 6.08529L15.1753 6.14565L17.6069 8.56639Z" fill="#0F1315"/>
</g>
</svg>
