<svg width="22" height="22" viewBox="0 0 18 20" fill="none" xmlns="http://www.w3.org/2000/svg">
<rect width="18" height="20" fill="#171717"/>
<g id="Dashboard" clip-path="url(#clip0_3_907)">
<rect width="1440" height="1011" transform="translate(-65 -115)" fill="#171717"/>
<g id="Group 1000003284">
<rect id="Rectangle 39" x="-65" y="-35" width="282" height="931" fill="#171717"/>
<g id="Group 3350">
<g id="Group 1000003283">
<rect id="Rectangle 798" x="-45" y="-15" width="242" height="50" rx="5" fill="white"/>
<g id="Group 1000003282">
<g id="Iconly/Light/Paper Plus">
<g id="Paper Plus">
<path id="Stroke 1" fill-rule="evenodd" clip-rule="evenodd" d="M11.7365 0.761902H5.08449C3.02549 0.761902 1.25049 2.4309 1.25049 4.4909V15.3399C1.25049 17.5159 2.90849 19.1149 5.08449 19.1149H13.0725C15.1325 19.1149 16.8025 17.3999 16.8025 15.3399V6.0379L11.7365 0.761902Z" stroke="#171717" stroke-width="1.5" stroke-linecap="round" stroke-linejoin="round"/>
<path id="Stroke 3" d="M11.4736 0.750183V3.65918C11.4736 5.07918 12.6226 6.23118 14.0426 6.23418C15.3586 6.23718 16.7056 6.23818 16.7966 6.23218" stroke="#171717" stroke-width="1.5" stroke-linecap="round" stroke-linejoin="round"/>
<path id="Stroke 5" d="M11.2946 10.9142H6.39355" stroke="#171717" stroke-width="1.5" stroke-linecap="round" stroke-linejoin="round"/>
<path id="Stroke 7" d="M8.84375 13.3654V8.46436" stroke="#171717" stroke-width="1.5" stroke-linecap="round" stroke-linejoin="round"/>
</g>
</g>
</g>
</g>
</g>
</g>
</g>
<defs>
<clipPath id="clip0_3_907">
<rect width="1440" height="1011" fill="white" transform="translate(-65 -115)"/>
</clipPath>
</defs>
</svg>
