<svg width="32" height="32" viewBox="0 0 32 32" fill="none" xmlns="http://www.w3.org/2000/svg">
<path fill-rule="evenodd" clip-rule="evenodd" d="M16 16C12.3181 16 9.33337 13.0152 9.33337 9.33329C9.33337 5.65139 12.3181 2.66663 16 2.66663C19.6819 2.66663 22.6667 5.65139 22.6667 9.33329C22.6667 13.0152 19.6819 16 16 16Z" stroke="#292D32" stroke-width="1.5" stroke-linecap="round" stroke-linejoin="round"/>
<path d="M20.8934 25.7067C20.7067 25.8934 20.5334 26.24 20.4934 26.4934L20.2401 28.2933C20.1467 28.9467 20.6001 29.4 21.2534 29.3067L23.0534 29.0533C23.3067 29.0133 23.6668 28.84 23.8401 28.6534L28.5601 23.9334C29.3734 23.1201 29.7601 22.1733 28.5601 20.9733C27.3734 19.7867 26.4268 20.1734 25.6135 20.9867L20.8934 25.7067Z" stroke="#292D32" stroke-width="1.5" stroke-linecap="round" stroke-linejoin="round"/>
<path d="M24.9335 21.6666C25.3335 23.1066 26.4534 24.2266 27.8934 24.6266" stroke="#292D32" stroke-width="1.5" stroke-linecap="round" stroke-linejoin="round"/>
<path d="M4.54651 29.3333C4.54651 24.1733 9.67988 20 15.9999 20C17.3865 20 18.7198 20.2 19.9598 20.5733" stroke="#292D32" stroke-width="1.5" stroke-linecap="round" stroke-linejoin="round"/>
</svg>
